<svg width="465" height="469" viewBox="0 0 465 469" fill="none" xmlns="http://www.w3.org/2000/svg">
<path d="M154.667 391.444L178.222 435C200.444 480.333 265.333 479.889 286.667 434.556L458.667 88.7778C477.333 48.3334 448.889 0.333374 403.111 0.333374H61.3333C15.5555 0.333374 -13.3333 48.3334 6.22221 88.7778L21.7778 119C25.7778 126.556 33.7778 131.889 42.6666 131.889C55.5555 131.889 66.2222 121.222 66.2222 108.333C66.2222 104.333 65.3333 100.778 63.5555 97.6667L48 68.3334C44 58.5556 50.6667 47.4445 61.3333 47.4445H403.111C413.778 47.4445 420.444 58.5556 416 68.3334L244.889 414.111C239.556 424.778 224.889 424.333 220 413.667L196.444 369.222C192.444 361.667 184.444 356.778 175.556 356.778C162.667 356.778 152 367.444 152 380.333C152 384.333 152.889 388.333 154.667 391.444ZM54.2222 184.333L124 326.556C127.556 334.556 135.556 339.889 144.889 339.889C157.778 339.889 168.444 329.222 168.444 316.333C168.444 312.778 167.556 309.222 165.778 306.111L96 163.889C92.4444 155.889 84.4444 150.556 75.1111 150.556C62.2222 150.556 51.5555 161.222 51.5555 174.111C51.5555 177.667 52.4444 181.222 54.2222 184.333Z" fill="black"/>
</svg>
