<svg width="512" height="512" viewBox="0 0 512 512" fill="none" xmlns="http://www.w3.org/2000/svg">
<path d="M179.161 411.4L202.493 454.542C224.505 499.445 288.778 499.005 309.909 454.102L480.276 111.605C498.766 71.5445 470.591 24 425.248 24H86.7136C41.3702 24 12.7555 71.5445 32.1254 111.605L47.5334 141.541C51.4954 149.024 59.4195 154.307 68.224 154.307C80.9906 154.307 91.5561 143.742 91.5561 130.975C91.5561 127.013 90.6756 123.491 88.9147 120.41L73.5068 91.3547C69.5447 81.6697 76.1481 70.6641 86.7136 70.6641H425.248C435.814 70.6641 442.417 81.6697 438.015 91.3547L268.527 433.851C263.245 444.417 248.717 443.977 243.875 433.411L220.543 389.388C216.581 381.905 208.656 377.062 199.852 377.062C187.085 377.062 176.52 387.627 176.52 400.394C176.52 404.356 177.4 408.318 179.161 411.4Z" fill="#0B0B09"/>
<path d="M148.786 347.127L79.6699 206.254C77.909 203.173 77.0286 199.651 77.0286 196.129C77.0286 183.362 87.594 172.797 100.361 172.797C109.605 172.797 117.529 178.08 121.051 186.004L190.167 326.876C191.928 329.958 192.808 333.48 192.808 337.002C192.808 349.768 182.243 360.334 169.476 360.334C160.231 360.334 152.307 355.051 148.786 347.127Z" fill="#0B0B09"/>
</svg>
