<svg viewBox="0 0 64 64" fill="none" xmlns="http://www.w3.org/2000/svg">
  <path fill-rule="evenodd" clip-rule="evenodd" d="M19.0473 61.485C22.2694 61.7482 26.3623 61.75 32 61.75C37.6377 61.75 41.7306 61.7482 44.9527 61.485C48.1486 61.2239 50.2893 60.7167 52.0583 59.8154C55.3982 58.1136 58.1136 55.3982 59.8154 52.0583C60.7167 50.2893 61.2239 48.1486 61.485 44.9527C61.7482 41.7306 61.75 37.6377 61.75 32C61.75 26.3623 61.7482 22.2694 61.485 19.0473C61.2239 15.8514 60.7167 13.7107 59.8154 11.9417C58.1136 8.60179 55.3982 5.88639 52.0583 4.18463C50.2893 3.28325 48.1486 2.77613 44.9527 2.51501C41.7306 2.25175 37.6377 2.25 32 2.25C26.3623 2.25 22.2694 2.25175 19.0473 2.51501C15.8514 2.77613 13.7107 3.28325 11.9417 4.18463C8.60179 5.88639 5.88639 8.60179 4.18463 11.9417C3.28325 13.7107 2.77613 15.8514 2.51501 19.0473C2.25175 22.2694 2.25 26.3623 2.25 32C2.25 37.6377 2.25175 41.7306 2.51501 44.9527C2.77613 48.1486 3.28325 50.2893 4.18463 52.0583C5.88639 55.3982 8.60179 58.1136 11.9417 59.8154C13.7107 60.7167 15.8514 61.2239 19.0473 61.485ZM2.17987 10.9202C0 15.1984 0 20.799 0 32C0 43.201 0 48.8016 2.17987 53.0798C4.09734 56.8431 7.15695 59.9027 10.9202 61.8201C15.1984 64 20.799 64 32 64C43.201 64 48.8016 64 53.0798 61.8201C56.8431 59.9027 59.9027 56.8431 61.8201 53.0798C64 48.8016 64 43.201 64 32C64 20.799 64 15.1984 61.8201 10.9202C59.9027 7.15695 56.8431 4.09734 53.0798 2.17987C48.8016 0 43.201 0 32 0C20.799 0 15.1984 0 10.9202 2.17987C7.15695 4.09734 4.09734 7.15695 2.17987 10.9202Z" fill="white"/>
  <rect x="8" y="48" width="40" height="8" rx="4" fill="#80FFBF" fill-opacity="0.8"/>
  <path d="M12.416 50.3105C12.416 51.4434 12.9922 52 14.1738 52H20.043C20.7363 52 21.1855 51.5801 21.1855 50.9258C21.1855 50.2715 20.7363 49.8418 20.043 49.8418H15.0332V46.2676H19.7988C20.4238 46.2676 20.8438 45.877 20.8438 45.2617C20.8438 44.6465 20.4238 44.2461 19.7988 44.2461H15.0332V40.8281H20.0723C20.7363 40.8281 21.1855 40.3984 21.1855 39.7539C21.1855 39.1094 20.7363 38.6699 20.0723 38.6699H14.1738C12.9922 38.6699 12.416 39.2363 12.416 40.3594V50.3105Z" fill="white"/>
  <path d="M30.7074 55.6816C31.5375 55.6816 31.9965 55.1738 31.9965 54.2656V42.9668C31.9965 42.0488 31.557 41.541 30.7367 41.541C29.9652 41.541 29.516 41.9805 29.477 42.7812V43.2695H29.3402C28.9301 42.166 27.7875 41.4727 26.3227 41.4727C23.9398 41.4727 22.4555 43.2207 22.4555 46.0625V47.5371C22.4555 50.3984 23.9203 52.1367 26.3129 52.1367C27.7582 52.1367 28.9008 51.4727 29.3012 50.3984H29.4281V54.2656C29.4281 55.1738 29.8871 55.6816 30.7074 55.6816ZM25.0922 47.332V46.2871C25.0922 44.5684 25.9027 43.5332 27.2211 43.5332C28.5395 43.5332 29.4281 44.5488 29.4281 46.0625V47.4395C29.4281 49.0801 28.598 50.0762 27.2504 50.0762C25.893 50.0762 25.0922 49.0703 25.0922 47.332Z" fill="white"/>
  <path d="M40.6199 50.2715H40.7566V50.8281C40.7859 51.6777 41.2645 52.0977 42.0066 52.0977C42.7586 52.0977 43.2762 51.6191 43.2762 50.7305V42.9375C43.2762 42 42.7781 41.541 41.9871 41.541C41.1863 41.541 40.698 42 40.698 42.9375V47.8887C40.698 49.1094 39.8484 49.998 38.5203 49.998C37.4949 49.998 36.6746 49.4512 36.6746 48.0059V42.9375C36.6746 42 36.1863 41.541 35.3953 41.541C34.5945 41.541 34.1063 42 34.1063 42.9375V48.6602C34.1063 51.0625 35.5027 52.1367 37.5145 52.1367C39.282 52.1367 40.2879 51.2285 40.6199 50.2715Z" fill="white"/>
  <path fill-rule="evenodd" clip-rule="evenodd" d="M40.223 12.875C40.127 12.875 40.0668 12.9787 40.1145 13.062L45.8913 23.1715C45.9393 23.2554 46.0603 23.2554 46.1083 23.1715L51.8852 13.062C51.9328 12.9787 51.8726 12.875 51.7766 12.875H49.3077L46.9645 16.7804C46.5275 17.5086 45.4721 17.5087 45.0351 16.7804L42.6919 12.875H40.223ZM40.223 11.125C38.7833 11.125 37.8808 12.6803 38.595 13.9303L44.3719 24.0397C45.0917 25.2993 46.908 25.2993 47.6278 24.0397L53.4046 13.9303C54.1189 12.6803 53.2163 11.125 51.7766 11.125H40.223ZM44.7327 12.875L45.9998 14.9868L47.2669 12.875H44.7327Z" fill="white"/>
</svg>
